<svg version="1.0" xmlns="http://www.w3.org/2000/svg"
 width="48.000000pt" height="48.000000pt" viewBox="0 0 48.000000 48.000000"
 preserveAspectRatio="xMidYMid meet">

<g transform="translate(0.000000,48.000000) scale(0.100000,-0.100000)"
fill="#000000" stroke="none">
<path d="M350 433 c-65 -6 -69 -19 -5 -15 30 2 55 8 55 13 0 5 -1 8 -2 7 -2
-1 -23 -3 -48 -5z"/>
<path d="M290 370 c0 -5 25 -10 55 -10 30 0 55 5 55 10 0 6 -25 10 -55 10 -30
0 -55 -4 -55 -10z"/>
<path d="M75 139 c9 -17 32 -40 51 -51 19 -11 34 -26 34 -33 0 -18 23 -25 80
-25 57 0 80 7 80 25 0 7 15 22 34 33 19 11 42 34 51 51 l16 31 -181 0 -181 0
16 -31z"/>
</g>
</svg>